<?xml version="1.0" encoding="UTF-8" standalone="no"?>
<!DOCTYPE svg PUBLIC "-//W3C//DTD SVG 1.1//EN"
 "http://www.w3.org/Graphics/SVG/1.1/DTD/svg11.dtd">
<!-- Generated by graphviz version 2.43.0 (0)
 -->
<!-- Title: G Pages: 1 -->
<svg width="514pt" height="1072pt"
 viewBox="0.00 0.00 513.50 1072.00" xmlns="http://www.w3.org/2000/svg" xmlns:xlink="http://www.w3.org/1999/xlink">
<g id="graph0" class="graph" transform="scale(1 1) rotate(0) translate(4 1068)">
<title>G</title>
<!-- n1 -->
<g id="node1" class="node">
<title>n1</title>
<polygon fill="lightblue" stroke="black" points="0,-990.5 0,-1063.5 198,-1063.5 198,-990.5 0,-990.5"/>
<text text-anchor="middle" x="99" y="-1023.3" font-family="Sans" font-size="14.00">Import from camera</text>
</g>
<!-- n3 -->
<g id="node3" class="node">
<title>n3</title>
<polygon fill="none" stroke="black" points="106.5,-815.5 106.5,-903.5 311.5,-903.5 311.5,-815.5 106.5,-815.5"/>
<text text-anchor="middle" x="209" y="-863.3" font-family="Sans" font-size="14.00">Create </text>
<text text-anchor="middle" x="209" y="-848.3" font-family="Sans" font-size="14.00"> temporary local disk</text>
</g>
<!-- n1&#45;&gt;n3 -->
<g id="edge1" class="edge">
<title>n1&#45;&gt;n3</title>
<path fill="none" stroke="black" d="M122.6,-990.5C137.8,-967.63 157.81,-937.52 174.75,-912.04"/>
<polygon fill="black" stroke="black" points="177.74,-913.85 180.36,-903.59 171.91,-909.98 177.74,-913.85"/>
</g>
<!-- n2 -->
<g id="node2" class="node">
<title>n2</title>
<polygon fill="lightblue" stroke="black" points="216,-990.5 216,-1063.5 424,-1063.5 424,-990.5 216,-990.5"/>
<text text-anchor="middle" x="320" y="-1023.3" font-family="Sans" font-size="14.00">Import from directory</text>
</g>
<!-- n2&#45;&gt;n3 -->
<g id="edge4" class="edge">
<title>n2&#45;&gt;n3</title>
<path fill="none" stroke="black" d="M296.19,-990.5C280.85,-967.63 260.66,-937.52 243.56,-912.04"/>
<polygon fill="black" stroke="black" points="246.38,-909.94 237.9,-903.59 240.56,-913.84 246.38,-909.94"/>
</g>
<!-- n4 -->
<g id="node4" class="node">
<title>n4</title>
<polygon fill="none" stroke="black" points="82,-655.5 82,-728.5 336,-728.5 336,-655.5 82,-655.5"/>
<text text-anchor="middle" x="209" y="-688.3" font-family="Sans" font-size="14.00">Check remote for duplicates</text>
</g>
<!-- n3&#45;&gt;n4 -->
<g id="edge2" class="edge">
<title>n3&#45;&gt;n4</title>
<path fill="none" stroke="black" d="M209,-815.45C209,-791.92 209,-762.78 209,-738.83"/>
<polygon fill="black" stroke="black" points="212.5,-738.58 209,-728.58 205.5,-738.58 212.5,-738.58"/>
</g>
<!-- n5 -->
<g id="node5" class="node">
<title>n5</title>
<polygon fill="lightblue" stroke="black" points="121,-495.5 121,-568.5 297,-568.5 297,-495.5 121,-495.5"/>
<text text-anchor="middle" x="209" y="-528.3" font-family="Sans" font-size="14.00">Display overview</text>
</g>
<!-- n4&#45;&gt;n5 -->
<g id="edge3" class="edge">
<title>n4&#45;&gt;n5</title>
<path fill="none" stroke="black" d="M209,-655.15C209,-632.52 209,-603.09 209,-578.78"/>
<polygon fill="black" stroke="black" points="212.5,-578.71 209,-568.71 205.5,-578.71 212.5,-578.71"/>
</g>
<!-- n6 -->
<g id="node6" class="node">
<title>n6</title>
<polygon fill="lightblue" stroke="black" points="44.5,-335.5 44.5,-408.5 147.5,-408.5 147.5,-335.5 44.5,-335.5"/>
<text text-anchor="middle" x="96" y="-368.3" font-family="Sans" font-size="14.00">Delete</text>
</g>
<!-- n5&#45;&gt;n6 -->
<g id="edge5" class="edge">
<title>n5&#45;&gt;n6</title>
<path fill="none" stroke="black" d="M177.54,-487.01C161.88,-465.12 143.01,-438.73 127.36,-416.85"/>
<polygon fill="black" stroke="black" points="174.69,-489.05 183.36,-495.15 180.39,-484.98 174.69,-489.05"/>
<polygon fill="black" stroke="black" points="130.2,-414.81 121.54,-408.71 124.51,-418.88 130.2,-414.81"/>
</g>
<!-- n7 -->
<g id="node7" class="node">
<title>n7</title>
<polygon fill="lightblue" stroke="black" points="166,-335.5 166,-408.5 252,-408.5 252,-335.5 166,-335.5"/>
<text text-anchor="middle" x="209" y="-368.3" font-family="Sans" font-size="14.00">Edit</text>
</g>
<!-- n5&#45;&gt;n7 -->
<g id="edge6" class="edge">
<title>n5&#45;&gt;n7</title>
<path fill="none" stroke="black" d="M209,-485.07C209,-464.26 209,-439.71 209,-418.9"/>
<polygon fill="black" stroke="black" points="205.5,-485.15 209,-495.15 212.5,-485.15 205.5,-485.15"/>
<polygon fill="black" stroke="black" points="212.5,-418.71 209,-408.71 205.5,-418.71 212.5,-418.71"/>
</g>
<!-- n8 -->
<g id="node8" class="node">
<title>n8</title>
<polygon fill="palegreen" stroke="black" points="332.5,-335.5 332.5,-408.5 411.5,-408.5 411.5,-335.5 332.5,-335.5"/>
<text text-anchor="middle" x="372" y="-368.3" font-family="Sans" font-size="14.00">OK</text>
</g>
<!-- n5&#45;&gt;n8 -->
<g id="edge7" class="edge">
<title>n5&#45;&gt;n8</title>
<path fill="none" stroke="black" d="M253.39,-487.98C276.53,-465.54 304.74,-438.19 327.85,-415.8"/>
<polygon fill="black" stroke="black" points="250.73,-485.67 245.99,-495.15 255.6,-490.7 250.73,-485.67"/>
<polygon fill="black" stroke="black" points="330.41,-418.18 335.16,-408.71 325.54,-413.16 330.41,-418.18"/>
</g>
<!-- z1 -->
<g id="node11" class="node">
<title>z1</title>
<polygon fill="wheat" stroke="black" points="277,-248.5 71,-248.5 71,-160.5 283,-160.5 283,-242.5 277,-248.5"/>
<polyline fill="none" stroke="black" points="277,-248.5 277,-242.5 "/>
<polyline fill="none" stroke="black" points="283,-242.5 277,-242.5 "/>
<text text-anchor="middle" x="177" y="-208.3" font-family="Sans" font-size="14.00">added as </text>
<text text-anchor="middle" x="177" y="-193.3" font-family="Sans" font-size="14.00"> Derivative or Original</text>
</g>
<!-- n7&#45;&gt;z1 -->
<g id="edge10" class="edge">
<title>n7&#45;&gt;z1</title>
<path fill="none" stroke="black" stroke-dasharray="5,2" d="M202.14,-335.5C197.21,-310.04 190.56,-275.62 185.33,-248.59"/>
</g>
<!-- n9 -->
<g id="node9" class="node">
<title>n9</title>
<polygon fill="none" stroke="black" points="300.5,-160.5 300.5,-248.5 505.5,-248.5 505.5,-160.5 300.5,-160.5"/>
<text text-anchor="middle" x="403" y="-208.3" font-family="Sans" font-size="14.00">Delete </text>
<text text-anchor="middle" x="403" y="-193.3" font-family="Sans" font-size="14.00"> temporary local disk</text>
</g>
<!-- n8&#45;&gt;n9 -->
<g id="edge8" class="edge">
<title>n8&#45;&gt;n9</title>
<path fill="none" stroke="black" d="M378.65,-335.5C382.84,-313.12 388.33,-283.82 393.03,-258.7"/>
<polygon fill="black" stroke="black" points="396.53,-259.06 394.93,-248.59 389.65,-257.77 396.53,-259.06"/>
</g>
<!-- n10 -->
<g id="node10" class="node">
<title>n10</title>
<polygon fill="none" stroke="black" points="319.5,-0.5 319.5,-73.5 486.5,-73.5 486.5,-0.5 319.5,-0.5"/>
<text text-anchor="middle" x="403" y="-33.3" font-family="Sans" font-size="14.00">Write to remote</text>
</g>
<!-- n9&#45;&gt;n10 -->
<g id="edge9" class="edge">
<title>n9&#45;&gt;n10</title>
<path fill="none" stroke="black" d="M403,-160.45C403,-136.92 403,-107.78 403,-83.83"/>
<polygon fill="black" stroke="black" points="406.5,-83.58 403,-73.58 399.5,-83.58 406.5,-83.58"/>
</g>
</g>
</svg>
