<?xml version="1.0" encoding="UTF-8" standalone="no"?>
<!DOCTYPE svg PUBLIC "-//W3C//DTD SVG 1.1//EN"
 "http://www.w3.org/Graphics/SVG/1.1/DTD/svg11.dtd">
<!-- Generated by graphviz version 2.43.0 (0)
 -->
<!-- Title: structs Pages: 1 -->
<svg width="518pt" height="856pt"
 viewBox="0.00 0.00 517.50 856.00" xmlns="http://www.w3.org/2000/svg" xmlns:xlink="http://www.w3.org/1999/xlink">
<g id="graph0" class="graph" transform="scale(1 1) rotate(0) translate(4 852)">
<title>structs</title>
<!-- Import from camera -->
<g id="node1" class="node">
<title>Import from camera</title>
<polygon fill="lightblue" stroke="black" points="0,-804.5 0,-847.5 173,-847.5 173,-804.5 0,-804.5"/>
<text text-anchor="middle" x="86.5" y="-822.3" font-family="Times,serif" font-size="14.00">Import from camera</text>
</g>
<!-- Create temporary local disk -->
<g id="node2" class="node">
<title>Create temporary local disk</title>
<polygon fill="lightgrey" stroke="black" points="71,-670.5 71,-713.5 298,-713.5 298,-670.5 71,-670.5"/>
<text text-anchor="middle" x="184.5" y="-688.3" font-family="Times,serif" font-size="14.00">Create temporary local disk</text>
</g>
<!-- Import from camera&#45;&gt;Create temporary local disk -->
<g id="edge1" class="edge">
<title>Import from camera&#45;&gt;Create temporary local disk</title>
<path fill="none" stroke="black" d="M101.81,-804.38C118.19,-782.32 144.28,-747.17 162.78,-722.26"/>
<polygon fill="black" stroke="black" points="168.97,-713.92 166.62,-724.63 165.99,-717.93 163.01,-721.94 163.01,-721.94 163.01,-721.94 165.99,-717.93 159.4,-719.26 168.97,-713.92 168.97,-713.92"/>
</g>
<!-- Check remote for duplicates -->
<g id="node3" class="node">
<title>Check remote for duplicates</title>
<polygon fill="lightgrey" stroke="black" points="69.5,-536.5 69.5,-579.5 299.5,-579.5 299.5,-536.5 69.5,-536.5"/>
<text text-anchor="middle" x="184.5" y="-554.3" font-family="Times,serif" font-size="14.00">Check remote for duplicates</text>
</g>
<!-- Create temporary local disk&#45;&gt;Check remote for duplicates -->
<g id="edge2" class="edge">
<title>Create temporary local disk&#45;&gt;Check remote for duplicates</title>
<path fill="none" stroke="black" d="M184.5,-670.38C184.5,-648.9 184.5,-615 184.5,-590.24"/>
<polygon fill="black" stroke="black" points="184.5,-579.92 189,-589.92 184.5,-584.92 184.5,-589.92 184.5,-589.92 184.5,-589.92 184.5,-584.92 180,-589.92 184.5,-579.92 184.5,-579.92"/>
</g>
<!-- Display Overview -->
<g id="node4" class="node">
<title>Display Overview</title>
<polygon fill="lightblue" stroke="black" points="107.5,-402.5 107.5,-445.5 261.5,-445.5 261.5,-402.5 107.5,-402.5"/>
<text text-anchor="middle" x="184.5" y="-420.3" font-family="Times,serif" font-size="14.00">Display Overview</text>
</g>
<!-- Check remote for duplicates&#45;&gt;Display Overview -->
<g id="edge3" class="edge">
<title>Check remote for duplicates&#45;&gt;Display Overview</title>
<path fill="none" stroke="black" d="M184.5,-536.38C184.5,-514.9 184.5,-481 184.5,-456.24"/>
<polygon fill="black" stroke="black" points="184.5,-445.92 189,-455.92 184.5,-450.92 184.5,-455.92 184.5,-455.92 184.5,-455.92 184.5,-450.92 180,-455.92 184.5,-445.92 184.5,-445.92"/>
</g>
<!-- Delete -->
<g id="node6" class="node">
<title>Delete</title>
<polygon fill="lightblue" stroke="black" points="62,-268.5 62,-311.5 137,-311.5 137,-268.5 62,-268.5"/>
<text text-anchor="middle" x="99.5" y="-286.3" font-family="Times,serif" font-size="14.00">Delete</text>
</g>
<!-- Display Overview&#45;&gt;Delete -->
<g id="edge5" class="edge">
<title>Display Overview&#45;&gt;Delete</title>
<path fill="none" stroke="black" d="M165.66,-393.74C151.62,-371.94 132.54,-342.3 118.47,-320.46"/>
<polygon fill="black" stroke="black" points="171.22,-402.38 162.02,-396.4 168.51,-398.17 165.8,-393.97 165.8,-393.97 165.8,-393.97 168.51,-398.17 169.59,-391.53 171.22,-402.38 171.22,-402.38"/>
<polygon fill="black" stroke="black" points="112.97,-311.92 122.17,-317.89 115.68,-316.12 118.38,-320.32 118.38,-320.32 118.38,-320.32 115.68,-316.12 114.6,-322.76 112.97,-311.92 112.97,-311.92"/>
</g>
<!-- Edit -->
<g id="node7" class="node">
<title>Edit</title>
<polygon fill="lightblue" stroke="black" points="155,-268.5 155,-311.5 214,-311.5 214,-268.5 155,-268.5"/>
<text text-anchor="middle" x="184.5" y="-286.3" font-family="Times,serif" font-size="14.00">Edit</text>
</g>
<!-- Display Overview&#45;&gt;Edit -->
<g id="edge6" class="edge">
<title>Display Overview&#45;&gt;Edit</title>
<path fill="none" stroke="black" d="M184.5,-392.09C184.5,-370.98 184.5,-343.11 184.5,-321.98"/>
<polygon fill="black" stroke="black" points="184.5,-402.38 180,-392.37 184.5,-397.38 184.5,-392.38 184.5,-392.38 184.5,-392.38 184.5,-397.38 189,-392.38 184.5,-402.38 184.5,-402.38"/>
<polygon fill="black" stroke="black" points="184.5,-311.92 189,-321.92 184.5,-316.92 184.5,-321.92 184.5,-321.92 184.5,-321.92 184.5,-316.92 180,-321.92 184.5,-311.92 184.5,-311.92"/>
</g>
<!-- OK -->
<g id="node8" class="node">
<title>OK</title>
<polygon fill="palegreen" stroke="black" points="323.5,-268.5 323.5,-311.5 377.5,-311.5 377.5,-268.5 323.5,-268.5"/>
<text text-anchor="middle" x="350.5" y="-286.3" font-family="Times,serif" font-size="14.00">OK</text>
</g>
<!-- Display Overview&#45;&gt;OK -->
<g id="edge7" class="edge">
<title>Display Overview&#45;&gt;OK</title>
<path fill="none" stroke="black" d="M210.44,-402.38C238.98,-379.68 284.98,-343.1 316.41,-318.1"/>
<polygon fill="black" stroke="black" points="324.47,-311.7 319.44,-321.44 320.56,-314.81 316.64,-317.92 316.64,-317.92 316.64,-317.92 320.56,-314.81 313.84,-314.4 324.47,-311.7 324.47,-311.7"/>
</g>
<!-- Import from directory -->
<g id="node5" class="node">
<title>Import from directory</title>
<polygon fill="lightblue" stroke="black" points="191,-804.5 191,-847.5 376,-847.5 376,-804.5 191,-804.5"/>
<text text-anchor="middle" x="283.5" y="-822.3" font-family="Times,serif" font-size="14.00">Import from directory</text>
</g>
<!-- Import from directory&#45;&gt;Create temporary local disk -->
<g id="edge4" class="edge">
<title>Import from directory&#45;&gt;Create temporary local disk</title>
<path fill="none" stroke="black" d="M268.03,-804.38C251.42,-782.23 224.9,-746.86 206.2,-721.93"/>
<polygon fill="black" stroke="black" points="200.19,-713.92 209.79,-719.22 203.19,-717.92 206.19,-721.92 206.19,-721.92 206.19,-721.92 203.19,-717.92 202.59,-724.62 200.19,-713.92 200.19,-713.92"/>
</g>
<!-- added as Derivative or Original -->
<g id="node11" class="node">
<title>added as Derivative or Original</title>
<polygon fill="wheat" stroke="black" points="259,-177.5 12,-177.5 12,-134.5 265,-134.5 265,-171.5 259,-177.5"/>
<polyline fill="none" stroke="black" points="259,-177.5 259,-171.5 "/>
<polyline fill="none" stroke="black" points="265,-171.5 259,-171.5 "/>
<text text-anchor="middle" x="138.5" y="-152.3" font-family="Times,serif" font-size="14.00">added as Derivative or Original</text>
</g>
<!-- Edit&#45;&gt;added as Derivative or Original -->
<g id="edge10" class="edge">
<title>Edit&#45;&gt;added as Derivative or Original</title>
<path fill="none" stroke="black" stroke-dasharray="5,2" d="M177.31,-268.38C168.72,-243.72 154.42,-202.7 145.79,-177.92"/>
</g>
<!-- Delete temporary local disk -->
<g id="node9" class="node">
<title>Delete temporary local disk</title>
<polygon fill="lightgrey" stroke="black" points="283.5,-134.5 283.5,-177.5 509.5,-177.5 509.5,-134.5 283.5,-134.5"/>
<text text-anchor="middle" x="396.5" y="-152.3" font-family="Times,serif" font-size="14.00">Delete temporary local disk</text>
</g>
<!-- OK&#45;&gt;Delete temporary local disk -->
<g id="edge8" class="edge">
<title>OK&#45;&gt;Delete temporary local disk</title>
<path fill="none" stroke="black" d="M357.69,-268.38C365.24,-246.71 377.2,-212.39 385.85,-187.57"/>
<polygon fill="black" stroke="black" points="389.21,-177.92 390.17,-188.84 387.57,-182.64 385.92,-187.36 385.92,-187.36 385.92,-187.36 387.57,-182.64 381.67,-185.88 389.21,-177.92 389.21,-177.92"/>
</g>
<!-- Write to remote -->
<g id="node10" class="node">
<title>Write to remote</title>
<polygon fill="lightgrey" stroke="black" points="325.5,-0.5 325.5,-43.5 467.5,-43.5 467.5,-0.5 325.5,-0.5"/>
<text text-anchor="middle" x="396.5" y="-18.3" font-family="Times,serif" font-size="14.00">Write to remote</text>
</g>
<!-- Delete temporary local disk&#45;&gt;Write to remote -->
<g id="edge9" class="edge">
<title>Delete temporary local disk&#45;&gt;Write to remote</title>
<path fill="none" stroke="black" d="M396.5,-134.38C396.5,-112.9 396.5,-79 396.5,-54.24"/>
<polygon fill="black" stroke="black" points="396.5,-43.92 401,-53.92 396.5,-48.92 396.5,-53.92 396.5,-53.92 396.5,-53.92 396.5,-48.92 392,-53.92 396.5,-43.92 396.5,-43.92"/>
</g>
</g>
</svg>
